<?xml version="1.0" encoding="UTF-8"?>
<svg id="Layer_1" xmlns="http://www.w3.org/2000/svg" version="1.1" viewBox="0 0 724 724">
  <!-- Generator: Adobe Illustrator 30.1.0, SVG Export Plug-In . SVG Version: 2.1.1 Build 136)  -->
  <defs>
    <style>
      .st0 {
        fill: #fff;
      }

      .st1 {
        fill: red;
      }
    </style>
  </defs>
  <path class="st1" d="M362,7.64L7.64,362l354.36,354.36,354.36-354.36L362,7.64ZM63.81,362L362,63.73l298.19,298.27-298.19,298.19L63.81,362Z"/>
  <path class="st0" d="M363.65,134.01c-41.75,0-75.63,36.48-75.63,81.46,0,29.23,10.93,70.27,32.25,95.4l-2.61,26.68-57.2,20.72c.91,4.47,4.87,7.82,9.6,7.82.84,0,1.65-.12,2.42-.32,1.09,4.22,4.91,7.33,9.45,7.33.48,0,.95-.04,1.42-.11,1.12,4.18,4.92,7.26,9.45,7.26,1.33,0,2.6-.27,3.76-.75.31,3.14,2.96,5.59,6.18,5.59.63,0,1.24-.09,1.82-.28.79,4.61,4.81,8.12,9.64,8.12,3.77,0,7.04-2.13,8.67-5.24,1.65,1.25,3.69,2,5.92,2,1.44,0,2.81-.32,4.04-.88,1.28,2.71,3.65,4.8,6.53,5.7-.11.35-.2.73-.2,1.13,0,1.99,1.62,3.6,3.6,3.6s3.6-1.61,3.6-3.6c0-.44-.09-.86-.24-1.25,4.2-1.47,7.22-5.46,7.22-10.16,0-2.15-.64-4.15-1.73-5.83,1.76-.24,3.12-1.73,3.12-3.55,0-1.55-.98-2.87-2.36-3.36,1.5-1.73,2.42-3.94,2.42-6.44,0-.46-.05-.93-.11-1.38,3.69-1.4,6.3-4.97,6.3-9.15,0-2.62-1.04-4.98-2.71-6.74.31.09.62.15.95.15,1.99,0,3.59-1.62,3.59-3.6s-1.61-3.6-3.59-3.6c-.79,0-1.51.26-2.11.69-.72-1.34-2.02-2.31-3.56-2.56,1.21-1.99,1.92-4.3,1.92-6.8,0-1.62-.31-3.15-.84-4.59,3.71-1.39,6.38-4.96,6.38-9.15,0-2.45-.9-4.68-2.36-6.4,2.72-.9,4.68-3.46,4.68-6.48,0-2.48-1.33-4.65-3.31-5.85.93-1.17,1.48-2.63,1.48-4.24,0-.41-.04-.81-.11-1.2,1.42-.07,2.73-.55,3.8-1.36-.09.43-.13.85-.13,1.29,0,2.43,1.26,4.55,3.15,5.77-.38,1.04-.59,2.16-.59,3.32,0,3.99,2.36,7.41,5.8,8.94-.32,1.12-.5,2.3-.5,3.51,0,4.14,1.95,7.83,4.99,10.19-2.65,1.16-4.51,3.81-4.51,6.89s1.85,5.72,4.5,6.89c-.53.91-.84,1.98-.84,3.11,0,2.49,1.46,4.62,3.57,5.62-.61,1.5-.95,3.14-.95,4.86,0,2.06.5,4.02,1.36,5.75-.42.47-.79.96-1.14,1.49-.65-.66-1.56-1.07-2.56-1.07-1.99,0-3.6,1.61-3.6,3.6s1.62,3.59,3.6,3.59c.17,0,.33-.02.5-.05-.02.33-.05.66-.05,1,0,2.5.72,4.81,1.94,6.79-1.05,1.99-1.65,4.25-1.65,6.65,0,3.69,1.4,7.03,3.68,9.56-.63,1.02-1,2.22-1,3.51,0,3.68,2.98,6.66,6.66,6.66,3.28,0,6-2.36,6.55-5.48,1.8-.2,3.5-.72,5.03-1.52.79,1.71,2.52,2.91,4.53,2.91,2.77,0,5-2.24,5-5,0-2.09-1.29-3.88-3.11-4.62.5-1.09.87-2.26,1.09-3.47,1.08.29,2.21.46,3.38.46.14,0,.29-.02.44-.02.87,2.25,3.06,3.84,5.63,3.84,1.97,0,3.72-.95,4.82-2.41.62,2.27,2.69,3.94,5.17,3.94,1.87,0,3.51-.96,4.47-2.42,1.04.64,2.25,1.02,3.57,1.02,3.77,0,6.83-3.06,6.83-6.84,0-1.26-.35-2.43-.95-3.45.52.17,1.08.26,1.65.26,2.96,0,5.37-2.39,5.37-5.36,0-.25-.02-.5-.06-.74,1.14,2.2,3.43,3.69,6.07,3.69,3.73,0,6.75-2.98,6.82-6.69,1.78-1.1,3.03-3,3.22-5.2.35.12.71.19,1.1.19,1.99,0,3.6-1.61,3.6-3.6,0-.41-.07-.81-.2-1.18l-5.47-1.76-57.12-18.39-.23-24.38c8.67-9.33,15.43-21.35,20.33-34.42,9.28-24.74,14.26-50.89,14.26-64.58,0-35.45-33.88-81.46-75.63-81.46h.03ZM246.59,363.97c-.98,0-1.91.28-2.69.76-13.59,5.21-24.87,9.53-29.15,11.27-9.59,3.83-16.7,14.08-16.7,24.23v32.73l53.02,53.81c.54.12,1.1.17,1.68.17,2.94,0,5.51-1.6,6.88-3.94,1.06.4,2.22.63,3.43.63,5.41,0,9.8-4.39,9.8-9.8,0-.39-.03-.77-.07-1.14,1.45,1.8,3.67,2.95,6.17,2.95,4.38,0,7.96-3.55,7.96-7.96,0-1.19-.27-2.31-.73-3.32,1.58-.56,2.95-1.61,3.89-2.96,1.01,1.03,2.41,1.67,3.94,1.67,3.06,0,5.59-2.49,5.59-5.51,0-1.6-.68-3.03-1.76-4.05,2.03-.98,3.58-2.81,4.18-5.03,1.28,1.4,3.05,2.35,5.03,2.55-.79.97-1.28,2.21-1.28,3.56,0,3.06,2.49,5.51,5.59,5.51s5.59-2.49,5.59-5.51c0-2.51-1.67-4.63-3.94-5.32,1.76-1.46,2.89-3.66,2.89-6.13,0-.73-.1-1.43-.29-2.1.24.02.49.03.73.03,1.12,0,2.18-.23,3.14-.65.09,2.13,1.83,3.84,3.99,3.84s4-1.8,4-4-1.71-3.9-3.85-3.99c.42-.96.65-2.02.65-3.14,0-.69-.1-1.34-.27-1.97,1.99,0,3.61-1.61,3.61-3.6s-1.62-3.59-3.61-3.59c-.1,0-.2.02-.3.02-.2-2.99-1.75-5.62-4.04-7.27,0-.23.03-.46.03-.69,0-5.41-4.39-9.79-9.8-9.79-1.88,0-3.64.54-5.13,1.47.21-.57.33-1.18.33-1.82,0-2.84-2.29-5.14-5.13-5.14-.51,0-.99.08-1.46.21.07-.46.11-.93.11-1.4,0-5.41-4.38-9.8-9.79-9.8-1.68,0-3.25.42-4.63,1.16-1.24-2.02-3.15-3.55-5.49-4.25.29-.65.46-1.37.46-2.13,0-2.84-2.3-5.14-5.14-5.14-.67,0-1.3.13-1.88.36-.04-5.38-4.4-9.73-9.79-9.73-.87,0-1.71.13-2.51.34-.78-1.84-2.6-3.13-4.73-3.13-1.25,0-2.39.45-3.29,1.2-.35-2.51-2.48-4.44-5.08-4.44M486.5,365.17c-2.41.19-4.37,1.96-4.84,4.29-.73-.38-1.56-.59-2.44-.59-2.96,0-5.36,2.39-5.36,5.36,0,.29.02.58.07.85-1.63-1.21-3.65-1.94-5.84-1.94-5.41,0-9.8,4.38-9.8,9.79v.05c-.99-.24-2.02-.39-3.1-.39-7.17,0-12.93,5.79-12.93,12.94,0,.67.06,1.32.17,1.97-.76-.34-1.61-.53-2.49-.53-2.04,0-3.84.99-4.98,2.51-1.17-.39-2.42-.6-3.72-.6-6.37,0-11.56,5.03-11.82,11.34-.41-.09-.83-.13-1.26-.13-3.43,0-6.21,2.78-6.21,6.21,0,1.05.26,2.02.71,2.89-.98-.56-2.13-.88-3.34-.88-3.77,0-6.84,3.06-6.84,6.84,0,1.97.84,3.74,2.17,4.99v.06c-1.58.16-2.9,1.22-3.4,2.67-.2.45-.32.95-.32,1.47,0,1.26.65,2.36,1.64,3.02.69.53,1.53.85,2.46.85,1.72,0,3.15-1.08,3.75-2.59.93.5,1.99.79,3.13.79.51,0,1.01-.06,1.49-.17-.04.41-.06.83-.06,1.25,0,1.56.31,3.05.86,4.42-2.21.52-3.85,2.49-3.85,4.85,0,.73.16,1.42.44,2.04.71,1.8,2.46,3.09,4.51,3.09,1.71,0,3.2-.88,4.07-2.21.32-.46.58-.95.75-1.5,1.54.73,3.25,1.15,5.07,1.15.57,0,1.11-.06,1.65-.13-.32.86-.5,1.79-.5,2.77,0,1.28.32,2.49.86,3.56-.25-.05-.51-.08-.78-.08-2.21,0-4,1.79-4,4s1.8,4,4,4c1.99,0,3.63-1.47,3.93-3.37,1.08,4.24,4.92,7.37,9.45,7.37,2.06,0,3.94-.63,5.51-1.71.47,3.93,3.82,6.98,7.88,6.98,2.06,0,3.94-.79,5.36-2.1-.02.24-.04.48-.04.72,0,5.4,4.39,9.79,9.8,9.79,1.85,0,3.58-.52,5.06-1.42-.74,1.01-1.18,2.25-1.18,3.6,0,3.38,2.73,6.11,6.11,6.11,2.04,0,3.84-1.01,4.96-2.54l53.02-48.84v-35.77c0-10.85-11.68-24.41-25.79-29.23-3.15-1.08-24.08-7.88-24.08-7.88M365.56,369.92c-2.77,0-5,2.24-5,5,0,1.91,1.08,3.55,2.65,4.39-1.5.43-2.61,1.8-2.61,3.44,0,1.99,1.62,3.6,3.6,3.6s3.6-1.61,3.6-3.6c0-1.2-.59-2.25-1.5-2.91,2.4-.36,4.25-2.42,4.25-4.92,0-2.77-2.24-5-4.99-5M347.68,374.56l-.02.21-.25-.13c.09-.02.19-.06.28-.08M358.53,391.58c-1.99,0-3.6,1.62-3.6,3.6s1.61,3.6,3.6,3.6,3.6-1.62,3.6-3.6-1.62-3.6-3.6-3.6M325.37,395.41c-2.84,0-5.14,2.3-5.14,5.14s2.3,5.13,5.14,5.13,5.14-2.29,5.14-5.13-2.3-5.14-5.14-5.14M383.55,404.53c-2.21,0-4.02,1.8-4.02,4.02s1.8,4.03,4.02,4.03c.32,0,.64-.05.93-.13.15,2.84,2.48,5.09,5.35,5.09.39,0,.77-.05,1.14-.13,2.49-.28,4.43-2.36,4.43-4.94,0-.91-.26-1.76-.69-2.5-.84-1.86-2.71-3.15-4.88-3.15-.88,0-1.71.21-2.44.59-.5-1.65-2.02-2.88-3.84-2.88M327.74,413.74c-1.99,0-3.6,1.62-3.6,3.6s1.61,3.6,3.6,3.6c.76,0,1.47-.24,2.05-.65.13,2.65,2.29,4.73,4.97,4.73s5-2.24,5-5-2.24-4.99-5-4.99c-1.38,0-2.62.56-3.53,1.46-.38-1.58-1.8-2.77-3.49-2.77M397.85,439.32c-2.96,0-5.36,2.39-5.36,5.36,0,.68.13,1.32.35,1.92-1.94.27-3.44,1.92-3.44,3.94,0,.57.13,1.1.34,1.58.56,1.41,1.93,2.42,3.55,2.42h.1c2.22,0,4.02-1.8,4.02-4,0-.18-.03-.35-.06-.53.17.02.33.02.5.02,2.96,0,5.36-2.39,5.36-5.36s-2.39-5.36-5.36-5.36M355.86,446.08c-2.77,0-5,2.25-5,5s2.24,5,5,5,4.99-2.24,4.99-5-2.24-5-4.99-5M326.71,446.81c-2.21,0-4,1.79-4,4s1.8,3.99,4,3.99,3.99-1.79,3.99-3.99-1.79-4-3.99-4M332.58,457.66c-3.06,0-5.59,2.49-5.59,5.51,0,2.79,2.06,5.09,4.73,5.49-.02.2-.04.41-.04.62-1.7-1.4-3.88-2.25-6.26-2.25-3.56,0-6.67,1.91-8.39,4.73-1.45-1.6-3.54-2.61-5.87-2.61-3.7,0-6.81,2.54-7.68,5.97-1.28-.87-2.81-1.38-4.47-1.38-4.38,0-7.96,3.55-7.96,7.96,0,.61.07,1.21.2,1.78-2.1-1.91-4.89-3.1-7.96-3.1-4.89,0-9.08,2.96-10.9,7.18-1.28-.87-2.81-1.38-4.47-1.38-4.38,0-7.96,3.55-7.96,7.96,0,.64.08,1.26.22,1.85l96.27,97.77c1.26-.53,2.14-1.77,2.14-3.22,0-1.37-.8-2.54-1.95-3.12,1.36-.48,2.35-1.76,2.35-3.29,0-1.44-.87-2.68-2.12-3.21,1.24-.81,2.05-2.21,2.05-3.79,0-2.17-1.51-3.94-3.54-4.43,4.03-2.78,6.67-7.42,6.67-12.68,0-3.25-1.01-6.26-2.73-8.74,2.77-1.73,4.62-4.81,4.62-8.31,0-3.94-2.35-7.37-5.73-8.91,1.33-1.02,2.19-2.61,2.19-4.41s-.94-3.55-2.36-4.55c.81-.96,1.29-2.2,1.29-3.55,0-3.06-2.49-5.51-5.59-5.51-.46,0-.91.06-1.34.17.62-1.28.98-2.73.98-4.25,0-1.43-.32-2.78-.87-4,2.88-.2,5.15-2.6,5.15-5.51,0-2.36-1.51-4.42-3.63-5.2,2.07-1.8,3.4-4.44,3.4-7.41,0-3.39-1.72-6.37-4.33-8.13,1.51-1.73,2.44-3.99,2.44-6.46,0-2.17-.71-4.16-1.91-5.78,1.54-.55,2.65-2.02,2.65-3.75,0-2.21-1.79-4-4-4-1.35,0-2.54.68-3.26,1.7-1.79-2.21-4.53-3.63-7.6-3.63-1.44,0-2.8.32-4.03.87-.94-1.74-2.78-2.93-4.9-2.93l.07-.04ZM387.01,459.26c-3.68,0-6.66,2.99-6.66,6.66,0,1.13.29,2.21.79,3.14-.96-.79-2.19-1.27-3.53-1.27-3.07,0-5.59,2.48-5.59,5.51,0,2.64,1.84,4.85,4.32,5.4-.72,1.37-1.14,2.92-1.14,4.58,0,3.15,1.52,6,3.87,7.78-.9,1.67-1.41,3.58-1.41,5.6,0,3.14,1.23,6,3.23,8.11-.65,1.47-1.02,3.1-1.02,4.81,0,.66.07,1.31.17,1.94-.8-.55-1.76-.91-2.79-.98.68-.92,1.09-2.06,1.09-3.29,0-3.07-2.49-5.51-5.59-5.51s-5.59,2.48-5.59,5.51c0,1.47.57,2.8,1.5,3.8-2.32.66-4.03,2.8-4.03,5.34,0,3.06,2.49,5.51,5.59,5.51.17,0,.34-.03.51-.05-1.02,1.75-1.62,3.79-1.62,5.96,0,4.14,2.12,7.77,5.33,9.89-4.24,1.8-7.22,6.01-7.22,10.91,0,3.55,1.57,6.74,4.05,8.91-2.57,1.76-4.25,4.72-4.25,8.07,0,1.37.28,2.67.79,3.85-.72,1.19-1.13,2.58-1.13,4.07,0,1.72.56,3.31,1.49,4.61-.8.64-1.33,1.62-1.33,2.73,0,1.2.61,2.26,1.53,2.89-.96.62-1.58,1.69-1.58,2.92,0,.22.02.44.06.65-.79.64-1.32,1.61-1.32,2.72,0,1.45.88,2.69,2.13,3.22l103.75-95.8c.2-.58.32-1.21.32-1.86,0-3.07-2.49-5.51-5.51-5.51-.95,0-1.85.24-2.63.66-.96-3.3-4.01-5.71-7.62-5.71-1.56,0-3,.46-4.23,1.23.02-.2.03-.4.03-.61,0-5.41-4.39-9.8-9.8-9.8-1.27,0-2.47.25-3.58.69-.14-2.95-2.56-5.29-5.51-5.29s-5.51,2.49-5.51,5.59c0,.24.02.47.05.7-1.39-2.27-3.9-3.79-6.76-3.79-.46,0-.9.05-1.33.12-.06-5.36-4.42-9.68-9.79-9.68-.55,0-1.08.06-1.61.14-.26-2.82-2.64-5.03-5.51-5.03-2.39,0-4.43,1.51-5.22,3.63-.24-.02-.49-.03-.74-.03-1.12,0-2.2.17-3.22.45-.95-2.51-3.38-4.31-6.23-4.31l.05.2ZM364.8,481.11c-2.21,0-4,1.8-4,4,0,1.2.54,2.25,1.36,2.99-1.07,1.01-1.74,2.44-1.74,4.03,0,3.06,2.49,5.51,5.59,5.51s5.59-2.49,5.59-5.51c0-2.25-1.34-4.18-3.27-5.06.33-.58.54-1.24.54-1.96,0-2.21-1.79-4-3.99-4"/>
</svg>